<mxfile host="Electron" modified="2024-03-29T12:59:13.548Z" agent="Mozilla/5.0 (Windows NT 10.0; Win64; x64) AppleWebKit/537.36 (KHTML, like Gecko) draw.io/24.0.4 Chrome/120.0.6099.109 Electron/28.1.0 Safari/537.36" etag="fGmak7Bk2AOIePz8gONg" version="24.0.4" type="device">
  <diagram name="Page-1" id="l9JparrZua1onAVKtT3t">
    <mxGraphModel dx="1723" dy="865" grid="1" gridSize="10" guides="1" tooltips="1" connect="1" arrows="1" fold="1" page="1" pageScale="1" pageWidth="850" pageHeight="1100" math="0" shadow="0">
      <root>
        <mxCell id="0" />
        <mxCell id="1" parent="0" />
        <mxCell id="ENUR7yLj_F7v97CTieAW-1" value="&lt;b&gt;&lt;font style=&quot;font-size: 22px;&quot;&gt;Soru 3&lt;/font&gt;&lt;/b&gt;" style="rounded=0;whiteSpace=wrap;html=1;fillColor=#f8cecc;strokeColor=#b85450;" vertex="1" parent="1">
          <mxGeometry x="70" y="20" width="120" height="60" as="geometry" />
        </mxCell>
        <mxCell id="ENUR7yLj_F7v97CTieAW-2" value="" style="ellipse;html=1;shape=endState;fillColor=#000000;strokeColor=#ff0000;" vertex="1" parent="1">
          <mxGeometry x="430" y="880" width="30" height="30" as="geometry" />
        </mxCell>
        <mxCell id="ENUR7yLj_F7v97CTieAW-3" value="" style="edgeStyle=orthogonalEdgeStyle;rounded=0;orthogonalLoop=1;jettySize=auto;html=1;" edge="1" parent="1" source="ENUR7yLj_F7v97CTieAW-4">
          <mxGeometry relative="1" as="geometry">
            <mxPoint x="440" y="125" as="targetPoint" />
          </mxGeometry>
        </mxCell>
        <mxCell id="ENUR7yLj_F7v97CTieAW-4" value="" style="ellipse;html=1;shape=startState;fillColor=#000000;strokeColor=#ff0000;" vertex="1" parent="1">
          <mxGeometry x="425" y="30" width="30" height="30" as="geometry" />
        </mxCell>
        <mxCell id="ENUR7yLj_F7v97CTieAW-5" value="" style="edgeStyle=orthogonalEdgeStyle;html=1;verticalAlign=bottom;endArrow=open;endSize=8;strokeColor=#ff0000;rounded=0;" edge="1" parent="1" source="ENUR7yLj_F7v97CTieAW-4" target="ENUR7yLj_F7v97CTieAW-6">
          <mxGeometry relative="1" as="geometry">
            <mxPoint x="440" y="120" as="targetPoint" />
          </mxGeometry>
        </mxCell>
        <mxCell id="ENUR7yLj_F7v97CTieAW-6" value="&lt;b&gt;&lt;span style=&quot;font-size:11.0pt;line-height:107%;&lt;br/&gt;font-family:&amp;quot;Calibri&amp;quot;,sans-serif;mso-ascii-theme-font:minor-latin;mso-fareast-font-family:&lt;br/&gt;Calibri;mso-fareast-theme-font:minor-latin;mso-hansi-theme-font:minor-latin;&lt;br/&gt;mso-bidi-font-family:Arial;mso-bidi-theme-font:minor-bidi;mso-ansi-language:&lt;br/&gt;TR;mso-fareast-language:EN-US;mso-bidi-language:AR-SA&quot;&gt;Hedef Seçin&lt;/span&gt;&lt;/b&gt;" style="rounded=1;whiteSpace=wrap;html=1;arcSize=40;fontColor=#000000;fillColor=#ffffc0;strokeColor=#ff0000;" vertex="1" parent="1">
          <mxGeometry x="355" y="130" width="170" height="40" as="geometry" />
        </mxCell>
        <mxCell id="ENUR7yLj_F7v97CTieAW-7" value="" style="edgeStyle=orthogonalEdgeStyle;html=1;verticalAlign=bottom;endArrow=open;endSize=8;strokeColor=#ff0000;rounded=0;" edge="1" parent="1" source="ENUR7yLj_F7v97CTieAW-6" target="ENUR7yLj_F7v97CTieAW-8">
          <mxGeometry relative="1" as="geometry">
            <mxPoint x="440" y="230" as="targetPoint" />
          </mxGeometry>
        </mxCell>
        <mxCell id="ENUR7yLj_F7v97CTieAW-8" value="&lt;b&gt;&lt;span style=&quot;font-size:11.0pt;line-height:107%;&lt;br/&gt;font-family:&amp;quot;Calibri&amp;quot;,sans-serif;mso-ascii-theme-font:minor-latin;mso-fareast-font-family:&lt;br/&gt;Calibri;mso-fareast-theme-font:minor-latin;mso-hansi-theme-font:minor-latin;&lt;br/&gt;mso-bidi-font-family:Arial;mso-bidi-theme-font:minor-bidi;mso-ansi-language:&lt;br/&gt;TR;mso-fareast-language:EN-US;mso-bidi-language:AR-SA&quot;&gt;Tarihleri Seçin&lt;/span&gt;&lt;/b&gt;" style="rounded=1;whiteSpace=wrap;html=1;arcSize=40;fontColor=#000000;fillColor=#ffffc0;strokeColor=#ff0000;" vertex="1" parent="1">
          <mxGeometry x="380" y="210" width="120" height="40" as="geometry" />
        </mxCell>
        <mxCell id="ENUR7yLj_F7v97CTieAW-9" value="" style="edgeStyle=orthogonalEdgeStyle;html=1;verticalAlign=bottom;endArrow=open;endSize=8;strokeColor=#ff0000;rounded=0;entryX=0.5;entryY=0;entryDx=0;entryDy=0;" edge="1" parent="1" source="ENUR7yLj_F7v97CTieAW-8" target="ENUR7yLj_F7v97CTieAW-10">
          <mxGeometry relative="1" as="geometry">
            <mxPoint x="440" y="330" as="targetPoint" />
          </mxGeometry>
        </mxCell>
        <mxCell id="ENUR7yLj_F7v97CTieAW-36" style="edgeStyle=orthogonalEdgeStyle;rounded=0;orthogonalLoop=1;jettySize=auto;html=1;exitX=0.5;exitY=1;exitDx=0;exitDy=0;entryX=0.5;entryY=0;entryDx=0;entryDy=0;" edge="1" parent="1" source="ENUR7yLj_F7v97CTieAW-10" target="ENUR7yLj_F7v97CTieAW-34">
          <mxGeometry relative="1" as="geometry" />
        </mxCell>
        <mxCell id="ENUR7yLj_F7v97CTieAW-10" value="&lt;b&gt;&lt;span style=&quot;font-size:11.0pt;line-height:107%;&lt;br/&gt;font-family:&amp;quot;Calibri&amp;quot;,sans-serif;mso-ascii-theme-font:minor-latin;mso-fareast-font-family:&lt;br/&gt;Calibri;mso-fareast-theme-font:minor-latin;mso-hansi-theme-font:minor-latin;&lt;br/&gt;mso-bidi-font-family:Arial;mso-bidi-theme-font:minor-bidi;mso-ansi-language:&lt;br/&gt;TR;mso-fareast-language:EN-US;mso-bidi-language:AR-SA&quot;&gt;Konaklama Seçin&lt;/span&gt;&lt;/b&gt;" style="rounded=1;whiteSpace=wrap;html=1;arcSize=40;fontColor=#000000;fillColor=#ffffc0;strokeColor=#ff0000;" vertex="1" parent="1">
          <mxGeometry x="360" y="290" width="160" height="40" as="geometry" />
        </mxCell>
        <mxCell id="ENUR7yLj_F7v97CTieAW-38" value="" style="edgeStyle=orthogonalEdgeStyle;rounded=0;orthogonalLoop=1;jettySize=auto;html=1;" edge="1" parent="1" source="ENUR7yLj_F7v97CTieAW-34" target="ENUR7yLj_F7v97CTieAW-37">
          <mxGeometry relative="1" as="geometry" />
        </mxCell>
        <mxCell id="ENUR7yLj_F7v97CTieAW-34" value="&lt;b&gt;&lt;span style=&quot;font-size:11.0pt;line-height:107%;&lt;br/&gt;font-family:&amp;quot;Calibri&amp;quot;,sans-serif;mso-ascii-theme-font:minor-latin;mso-fareast-font-family:&lt;br/&gt;Calibri;mso-fareast-theme-font:minor-latin;mso-hansi-theme-font:minor-latin;&lt;br/&gt;mso-bidi-font-family:Arial;mso-bidi-theme-font:minor-bidi;mso-ansi-language:&lt;br/&gt;TR;mso-fareast-language:EN-US;mso-bidi-language:AR-SA&quot;&gt;Ulaşım Seçin&lt;/span&gt;&lt;/b&gt;" style="rounded=1;whiteSpace=wrap;html=1;arcSize=40;fontColor=#000000;fillColor=#ffffc0;strokeColor=#ff0000;" vertex="1" parent="1">
          <mxGeometry x="360" y="370" width="160" height="40" as="geometry" />
        </mxCell>
        <mxCell id="ENUR7yLj_F7v97CTieAW-40" value="" style="edgeStyle=orthogonalEdgeStyle;rounded=0;orthogonalLoop=1;jettySize=auto;html=1;" edge="1" parent="1" source="ENUR7yLj_F7v97CTieAW-37" target="ENUR7yLj_F7v97CTieAW-39">
          <mxGeometry relative="1" as="geometry" />
        </mxCell>
        <mxCell id="ENUR7yLj_F7v97CTieAW-37" value="&lt;b&gt;&lt;span style=&quot;font-size:11.0pt;line-height:107%;&lt;br/&gt;font-family:&amp;quot;Calibri&amp;quot;,sans-serif;mso-ascii-theme-font:minor-latin;mso-fareast-font-family:&lt;br/&gt;Calibri;mso-fareast-theme-font:minor-latin;mso-hansi-theme-font:minor-latin;&lt;br/&gt;mso-bidi-font-family:Arial;mso-bidi-theme-font:minor-bidi;mso-ansi-language:&lt;br/&gt;TR;mso-fareast-language:EN-US;mso-bidi-language:AR-SA&quot;&gt;Seyahat Programını&lt;br/&gt;İncele&lt;/span&gt;&lt;/b&gt;" style="whiteSpace=wrap;html=1;fillColor=#ffffc0;strokeColor=#ff0000;fontColor=#000000;rounded=1;arcSize=40;" vertex="1" parent="1">
          <mxGeometry x="350" y="470" width="180" height="50" as="geometry" />
        </mxCell>
        <mxCell id="ENUR7yLj_F7v97CTieAW-48" style="edgeStyle=orthogonalEdgeStyle;rounded=0;orthogonalLoop=1;jettySize=auto;html=1;exitX=0.5;exitY=1;exitDx=0;exitDy=0;entryX=0.5;entryY=0;entryDx=0;entryDy=0;" edge="1" parent="1" source="ENUR7yLj_F7v97CTieAW-39" target="ENUR7yLj_F7v97CTieAW-41">
          <mxGeometry relative="1" as="geometry" />
        </mxCell>
        <mxCell id="ENUR7yLj_F7v97CTieAW-39" value="&lt;b&gt;&lt;span style=&quot;font-size:11.0pt;line-height:107%;&lt;br/&gt;font-family:&amp;quot;Calibri&amp;quot;,sans-serif;mso-ascii-theme-font:minor-latin;mso-fareast-font-family:&lt;br/&gt;Calibri;mso-fareast-theme-font:minor-latin;mso-hansi-theme-font:minor-latin;&lt;br/&gt;mso-bidi-font-family:Arial;mso-bidi-theme-font:minor-bidi;mso-ansi-language:&lt;br/&gt;TR;mso-fareast-language:EN-US;mso-bidi-language:AR-SA&quot;&gt;Seyahat Programından&lt;br/&gt;Memnun musunuz&lt;/span&gt;&lt;/b&gt;" style="whiteSpace=wrap;html=1;fillColor=#ffffc0;strokeColor=#ff0000;fontColor=#000000;rounded=1;arcSize=40;" vertex="1" parent="1">
          <mxGeometry x="350" y="550" width="180" height="50" as="geometry" />
        </mxCell>
        <mxCell id="ENUR7yLj_F7v97CTieAW-41" value="Condition" style="rhombus;whiteSpace=wrap;html=1;fontColor=#000000;fillColor=#ffffc0;strokeColor=#ff0000;" vertex="1" parent="1">
          <mxGeometry x="400" y="640" width="80" height="40" as="geometry" />
        </mxCell>
        <mxCell id="ENUR7yLj_F7v97CTieAW-43" value="yes" style="edgeStyle=orthogonalEdgeStyle;html=1;align=left;verticalAlign=top;endArrow=open;endSize=8;strokeColor=#ff0000;rounded=0;" edge="1" source="ENUR7yLj_F7v97CTieAW-41" parent="1">
          <mxGeometry x="-1" relative="1" as="geometry">
            <mxPoint x="440" y="730" as="targetPoint" />
          </mxGeometry>
        </mxCell>
        <mxCell id="ENUR7yLj_F7v97CTieAW-46" value="" style="curved=1;endArrow=classic;html=1;rounded=0;entryX=1;entryY=0.75;entryDx=0;entryDy=0;exitX=1;exitY=0.5;exitDx=0;exitDy=0;" edge="1" parent="1" source="ENUR7yLj_F7v97CTieAW-41" target="ENUR7yLj_F7v97CTieAW-6">
          <mxGeometry width="50" height="50" relative="1" as="geometry">
            <mxPoint x="670" y="700" as="sourcePoint" />
            <mxPoint x="700" y="150" as="targetPoint" />
            <Array as="points">
              <mxPoint x="670" y="670" />
              <mxPoint x="700" y="200" />
              <mxPoint x="650" y="150" />
            </Array>
          </mxGeometry>
        </mxCell>
        <mxCell id="ENUR7yLj_F7v97CTieAW-47" value="No" style="text;html=1;align=center;verticalAlign=middle;whiteSpace=wrap;rounded=0;" vertex="1" parent="1">
          <mxGeometry x="450" y="630" width="60" height="30" as="geometry" />
        </mxCell>
        <mxCell id="ENUR7yLj_F7v97CTieAW-53" style="edgeStyle=orthogonalEdgeStyle;rounded=0;orthogonalLoop=1;jettySize=auto;html=1;exitX=0.5;exitY=1;exitDx=0;exitDy=0;entryX=0.5;entryY=0;entryDx=0;entryDy=0;" edge="1" parent="1" source="ENUR7yLj_F7v97CTieAW-50" target="ENUR7yLj_F7v97CTieAW-51">
          <mxGeometry relative="1" as="geometry" />
        </mxCell>
        <mxCell id="ENUR7yLj_F7v97CTieAW-50" value="&lt;b&gt;&lt;span style=&quot;font-size:11.0pt;line-height:107%;&lt;br/&gt;font-family:&amp;quot;Calibri&amp;quot;,sans-serif;mso-ascii-theme-font:minor-latin;mso-fareast-font-family:&lt;br/&gt;Calibri;mso-fareast-theme-font:minor-latin;mso-hansi-theme-font:minor-latin;&lt;br/&gt;mso-bidi-font-family:Arial;mso-bidi-theme-font:minor-bidi;mso-ansi-language:&lt;br/&gt;TR;mso-fareast-language:EN-US;mso-bidi-language:AR-SA&quot;&gt;Konaklama Seçin&lt;/span&gt;&lt;/b&gt;" style="rounded=1;whiteSpace=wrap;html=1;arcSize=40;fontColor=#000000;fillColor=#ffffc0;strokeColor=#ff0000;" vertex="1" parent="1">
          <mxGeometry x="365" y="730" width="160" height="40" as="geometry" />
        </mxCell>
        <mxCell id="ENUR7yLj_F7v97CTieAW-54" style="edgeStyle=orthogonalEdgeStyle;rounded=0;orthogonalLoop=1;jettySize=auto;html=1;exitX=0.5;exitY=1;exitDx=0;exitDy=0;entryX=0.5;entryY=0;entryDx=0;entryDy=0;" edge="1" parent="1" source="ENUR7yLj_F7v97CTieAW-51" target="ENUR7yLj_F7v97CTieAW-2">
          <mxGeometry relative="1" as="geometry" />
        </mxCell>
        <mxCell id="ENUR7yLj_F7v97CTieAW-51" value="&lt;b&gt;&lt;span style=&quot;font-size:11.0pt;line-height:107%;&lt;br/&gt;font-family:&amp;quot;Calibri&amp;quot;,sans-serif;mso-ascii-theme-font:minor-latin;mso-fareast-font-family:&lt;br/&gt;Calibri;mso-fareast-theme-font:minor-latin;mso-hansi-theme-font:minor-latin;&lt;br/&gt;mso-bidi-font-family:Arial;mso-bidi-theme-font:minor-bidi;mso-ansi-language:&lt;br/&gt;TR;mso-fareast-language:EN-US;mso-bidi-language:AR-SA&quot;&gt;Ulaşım Seçin&lt;/span&gt;&lt;/b&gt;" style="rounded=1;whiteSpace=wrap;html=1;arcSize=40;fontColor=#000000;fillColor=#ffffc0;strokeColor=#ff0000;" vertex="1" parent="1">
          <mxGeometry x="370" y="810" width="160" height="40" as="geometry" />
        </mxCell>
      </root>
    </mxGraphModel>
  </diagram>
</mxfile>
